<?xml version="1.0" encoding="iso-8859-1"?>
<!-- Uploaded to: SVG Repo, www.svgrepo.com, Generator: SVG Repo Mixer Tools -->
<svg height="800px" width="800px" version="1.1" id="Layer_1" xmlns="http://www.w3.org/2000/svg" xmlns:xlink="http://www.w3.org/1999/xlink" 
	 viewBox="0 0 512.001 512.001" xml:space="preserve">
<path style="fill:#AA8B65;" d="M451.767,413.557c15.165-29.19-4.399-50.401-4.399-50.401c23.301-34.55-7.231-61.818-7.231-61.818
	c9.641-55.391-29.729-78.244-29.729-78.244c-1.607-38.021-32.943-53.219-32.943-53.219s20.086-38.12,0-70.26
	c-20.086-32.139-55.44-31.081-55.44-31.081S307.562,3.199,260.96,4.806s-65.081,67.89-65.081,67.89
	c-53.029,21.289-31.336,79.949-45.798,97.18s-9.642,41.424-9.642,41.424c-28.926,19.283-18.48,55.842-18.48,55.842
	c-49.815,22.096-36.157,76.61-36.157,76.61c-36.157,19.965-24.908,67.614-24.908,67.614s15.361,39.744,73.854,46.243
	c0,0,17.331,23.83,46.939,16.609c0,0,24.546,40.44,88.458,35.385c0,0,53.081,1.444,81.966-36.829c0,0,34.663,4.48,51.271-26.645
	C403.383,446.127,435.011,445.808,451.767,413.557z"/>
<g>
	<circle style="fill:#836948;" cx="125.329" cy="394.101" r="13.119"/>
	<circle style="fill:#836948;" cx="331.142" cy="134.131" r="13.119"/>
</g>
<g style="opacity:0.16;">
	<path style="fill:#663A00;" d="M446.839,363.157c23.301-34.55-7.231-61.818-7.231-61.818c9.641-55.391-29.729-78.244-29.729-78.244
		c-0.314-7.441-1.777-13.994-3.911-19.743c3.457,10.957,4.91,24.523,2.051,40.952c0,0,30.532,27.269,7.231,61.818
		c0,0,19.564,21.212,4.399,50.401c-16.755,32.251-48.383,32.57-48.383,32.57c-16.609,31.125-51.271,26.645-51.271,26.645
		c-28.886,38.273-81.966,36.829-81.966,36.829c-63.913,5.055-88.458-35.385-88.458-35.385
		c-29.607,7.221-46.939-16.609-46.939-16.609c-18.565-2.063-32.779-7.476-43.542-13.903c-1.324,13.666,1.277,24.695,1.277,24.695
		s15.361,39.744,73.854,46.243c0,0,17.331,23.83,46.939,16.609c0,0,24.546,40.44,88.458,35.385c0,0,53.08,1.444,81.966-36.829
		c0,0,34.663,4.48,51.271-26.645c0,0,31.628-0.319,48.383-32.57C466.403,384.369,446.839,363.157,446.839,363.157z"/>
</g>
<path d="M451,359.53c10.371-18.493,7.423-34.886,2.833-45.716c-3.342-7.884-7.995-13.857-11.031-17.243
	c6.533-46.959-20.047-71.253-29.994-78.568c-2.653-28.324-20.283-44.309-30.033-51.082c5.15-13.08,13.615-43.12-3.24-70.089
	c-16.813-26.9-43.101-32.658-55.034-33.863c-1.917-6.443-5.749-17.427-12.172-28.404c-13.659-23.341-32.321-35.267-54.097-34.532
	c-44.753,1.543-65.192,54.169-70.001,68.741c-35.775,16.243-38.188,48.756-39.964,72.691c-0.753,10.163-1.466,19.763-4.644,23.551
	c-12.327,14.685-12.539,33.308-11.787,42.13c-21.255,16.977-20.458,42.317-18.676,54.115c-24.063,12.917-32.352,33.38-34.996,48.793
	c-1.912,11.145-1.163,21.094-0.327,27.013c-13.948,9.549-22.451,24.463-24.705,43.473c-1.818,15.336,1.113,28.012,1.238,28.544
	c0.081,0.342,0.186,0.679,0.312,1.006c0.674,1.743,16.924,42.088,75.815,49.948c5.122,5.69,18.651,18.121,39.079,18.119
	c2.455,0,5.011-0.18,7.661-0.573c8.212,10.289,32.482,34.418,79.47,34.418c3.552,0,7.234-0.138,11.049-0.43
	c5.513,0.067,54.188-0.35,83.875-35.983c10.44,0.174,36.113-2.064,51.516-26.796c10.249-1.373,35.079-7.595,49.719-35.773l0,0
	C465.796,388.13,456.705,368.281,451,359.53z M398.4,433.779c-2.815,0.028-5.391,1.591-6.717,4.076
	c-13.534,25.362-41.458,22.314-42.611,22.176c-2.741-0.353-5.467,0.791-7.134,2.998c-25.583,33.898-73.744,33.154-74.202,33.138
	c-0.272-0.008-0.544,0-0.817,0.022c-56.918,4.498-78.866-29.673-79.75-31.096c-1.418-2.336-3.935-3.706-6.582-3.706
	c-0.606,0-1.219,0.072-1.826,0.22c-23.531,5.739-37.519-12.621-38.079-13.372c-1.273-1.752-3.226-2.885-5.378-3.125
	c-49.111-5.456-64.186-35.867-66.063-40.12c-1.084-5.231-7.499-41.743,20.828-57.386c3.059-1.689,4.597-5.225,3.748-8.613
	c-0.03-0.118-2.933-11.987-0.472-26.33c3.205-18.681,13.857-32.157,31.66-40.054c3.492-1.55,5.314-5.451,4.29-9.131
	c-0.349-1.253-8.27-30.856,15.022-46.385c2.578-1.719,3.87-4.844,3.286-7.886c-0.039-0.203-3.767-20.483,7.816-34.283
	c6.376-7.595,7.225-19.05,8.209-32.314c1.7-22.922,3.628-48.9,33.774-61.003c2.224-0.892,3.906-2.77,4.55-5.079
	c0.166-0.598,17.106-59.727,56.812-61.097c0.448-0.015,0.89-0.023,1.332-0.023c37.782,0,50.773,56.061,50.898,56.626
	c0.8,3.611,4.065,6.137,7.751,6.033c0.29-0.017,30.525-0.594,47.727,26.933c17.092,27.346-0.114,61.059-0.281,61.382
	c-0.973,1.846-1.155,4.009-0.504,5.992s2.078,3.617,3.956,4.527c0.267,0.129,26.675,13.305,28.045,45.701
	c0.111,2.627,1.555,5.015,3.828,6.335c0.341,0.197,33.955,20.329,25.498,68.92c-0.452,2.598,0.482,5.27,2.433,7.043
	c1.015,0.922,24.64,22.908,5.878,50.729c-1.996,2.959-1.696,6.904,0.723,9.527c0.156,0.169,15.421,17.148,3.15,40.765
	C425.179,432.898,399.446,433.756,398.4,433.779z"/>
<path d="M196.454,213.769c0.549,0.119,1.097,0.176,1.637,0.176c3.548,0,6.739-2.465,7.52-6.074
	c4.316-19.934,21.277-19.608,23.131-19.516c2.355,0.174,4.682-0.77,6.269-2.537c1.587-1.767,2.269-4.168,1.849-6.505
	c-4.102-22.852,12.37-28.577,14.312-29.167c4.056-1.179,6.411-5.413,5.263-9.485c-1.155-4.094-5.416-6.475-9.503-5.323
	c-9.969,2.812-26.794,14.268-26.122,38.297c-11.404,2.248-25.778,10.309-30.253,30.977
	C189.656,208.769,192.296,212.868,196.454,213.769z"/>
<path d="M332.14,308.329c-0.151,4.251,3.172,7.82,7.423,7.97c0.093,0.003,0.186,0.005,0.278,0.005c4.127,0,7.544-3.271,7.691-7.427
	c0.385-10.832-2.568-19.686-8.779-26.314c-5.028-5.366-11.115-8.087-15.955-9.465c1.118-22.53-14.613-35.99-24.027-40.222
	c-3.879-1.745-8.463-0.024-10.206,3.855c-1.744,3.879-0.038,8.426,3.841,10.171c1.937,0.905,18.794,9.458,14.284,30.897
	c-0.469,2.231,0.075,4.557,1.486,6.349c1.41,1.792,3.543,2.867,5.822,2.934c0.081,0.002,8.341,0.489,13.515,6.011
	C330.818,296.619,332.373,301.745,332.14,308.329z"/>
<path d="M184.697,334.219c-1.897-8.471-0.398-15.088,4.582-20.229c4.002-4.132,8.856-5.775,8.854-5.775
	c2.906-0.913,5.001-3.452,5.345-6.478c1.929-16.981,13.847-20.206,15.201-20.517l-0.099,0.021l-3.045-15.099
	c-0.927,0.187-21.581,4.637-26.634,29.25c-10.823,5.339-24.496,18.696-19.234,42.193c0.802,3.585,3.982,6.021,7.508,6.021
	c0.558,0,1.123-0.061,1.69-0.188C183.015,342.488,185.626,338.369,184.697,334.219z"/>
<path d="M126.618,369.803c-5.492-0.38-10.796,1.401-14.946,5.012c-8.565,7.457-9.468,20.493-2.012,29.057
	c4.067,4.672,9.793,7.064,15.549,7.064c4.797,0,9.616-1.662,13.508-5.051c4.151-3.612,6.645-8.625,7.025-14.113
	c0.38-5.488-1.4-10.795-5.012-14.945S132.107,370.182,126.618,369.803z M128.605,394.266c-2.161,1.88-5.447,1.651-7.326-0.507
	c-1.88-2.159-1.652-5.446,0.507-7.327c0.953-0.83,2.149-1.276,3.402-1.276c0.121,0,0.243,0.004,0.366,0.012
	c1.384,0.095,2.647,0.725,3.558,1.77l0,0c0.912,1.046,1.36,2.384,1.264,3.769C130.281,392.093,129.652,393.356,128.605,394.266z"/>
<path d="M326.05,155.389c0.487,0.034,0.97,0.05,1.454,0.05c4.965,0,9.71-1.77,13.493-5.062c8.565-7.457,9.468-20.493,2.012-29.057
	c-3.614-4.15-8.624-6.644-14.112-7.024c-5.494-0.379-10.797,1.4-14.945,5.012c-4.151,3.612-6.645,8.624-7.025,14.112
	c-0.38,5.489,1.4,10.796,5.012,14.945C315.55,152.514,320.562,155.008,326.05,155.389z M324.065,130.925
	c0.954-0.831,2.149-1.276,3.402-1.276c0.121,0,0.243,0.004,0.366,0.013c1.384,0.096,2.647,0.725,3.558,1.771
	c1.88,2.16,1.652,5.446-0.506,7.327c-1.046,0.911-2.385,1.359-3.769,1.263c-1.384-0.096-2.647-0.725-3.559-1.771
	c-0.911-1.046-1.359-2.384-1.263-3.768C322.389,133.1,323.018,131.836,324.065,130.925z"/>
<path d="M215.222,111.553c0.617,0.151,1.233,0.224,1.84,0.224c3.465,0,6.612-2.355,7.473-5.87
	c7.736-31.562,35.721-37.44,36.982-37.689c4.164-0.792,6.908-4.802,6.132-8.973c-0.777-4.182-4.808-6.947-8.979-6.164
	c-1.585,0.295-38.929,7.691-49.095,49.159C208.564,106.371,211.092,110.541,215.222,111.553z"/>
<path d="M288.62,428.24c-14.285,7.754-26.764,9.945-37.095,6.509c-12.99-4.319-18.714-16.474-18.75-16.554
	c-0.94-2.111-2.778-3.689-5.007-4.297c-26.359-7.197-30.99-34.333-31.188-35.584c-0.642-4.194-4.556-7.079-8.754-6.452
	c-4.207,0.629-7.106,4.551-6.475,8.757c0.226,1.509,5.772,36.037,39.125,47.158c3.312,5.558,11.428,16.577,25.922,21.497
	c4.844,1.645,9.915,2.465,15.202,2.465c10.641,0,22.144-3.329,34.37-9.965c3.739-2.029,5.123-6.704,3.095-10.442
	C297.033,427.597,292.359,426.209,288.62,428.24z"/>
<path d="M361.192,344.248c-4.248,0.209-7.522,3.822-7.313,8.07c1.807,36.715-19.166,46.769-20.223,47.251
	c-3.869,1.684-5.667,6.175-4.016,10.068c1.245,2.935,4.095,4.697,7.094,4.697c1.003,0,2.023-0.197,3.004-0.613
	c1.304-0.552,31.893-14.089,29.527-62.16C369.055,347.313,365.471,344.038,361.192,344.248z"/>
</svg>