<?xml version="1.0" standalone="no"?>
<!DOCTYPE svg PUBLIC "-//W3C//DTD SVG 20010904//EN"
 "http://www.w3.org/TR/2001/REC-SVG-20010904/DTD/svg10.dtd">
<svg version="1.0" xmlns="http://www.w3.org/2000/svg"
 width="512.000000pt" height="512.000000pt" viewBox="0 0 512.000000 512.000000"
 preserveAspectRatio="xMidYMid meet">
<metadata>
Created by potrace 1.16, written by Peter Selinger 2001-2019
</metadata>
<g transform="translate(0.000000,512.000000) scale(0.100000,-0.100000)"
fill="#000000" stroke="none">
<path d="M2235 4770 c-3 -5 2 -24 11 -42 18 -34 21 -67 27 -308 l4 -136 -56
56 c-167 167 -368 261 -561 264 -80 1 -229 -10 -259 -20 -9 -3 -2 -16 22 -44
20 -21 70 -108 111 -192 41 -84 90 -176 109 -204 l34 -51 -41 9 c-103 24 -304
-20 -412 -90 -69 -45 -151 -117 -144 -126 3 -3 28 2 55 10 94 30 365 17 510
-25 29 -8 28 -8 -20 -16 -27 -4 -65 -15 -85 -23 -47 -19 -146 -91 -194 -140
l-39 -40 99 0 c107 0 175 -17 283 -71 l54 -28 -274 -6 c-151 -3 -282 -9 -292
-13 -32 -12 -37 -50 -37 -275 0 -206 1 -220 20 -239 11 -11 31 -20 44 -20 28
0 33 -14 42 -125 9 -103 14 -113 67 -117 l42 -3 37 -190 c88 -448 312 -1411
335 -1435 16 -17 -64 409 -152 800 -75 335 -131 606 -150 726 -4 28 -2 44 6
49 6 4 458 8 1005 9 988 1 993 1 989 -19 -3 -11 -29 -135 -59 -275 -107 -500
-196 -886 -226 -980 -28 -87 -76 -187 -85 -178 -2 2 5 59 16 127 11 68 18 125
17 127 -2 1 -25 -90 -52 -204 -26 -114 -70 -275 -97 -358 -41 -127 -55 -158
-90 -198 -46 -52 -37 -57 36 -22 80 37 92 57 150 248 62 200 123 378 124 361
2 -19 -58 -332 -85 -444 -18 -78 -32 -113 -49 -129 -28 -26 -273 -113 -400
-142 -224 -50 -590 -7 -795 95 -61 30 -66 35 -82 84 -10 28 -30 111 -45 184
-15 72 -29 127 -31 121 -5 -15 47 -337 59 -369 5 -13 20 -35 35 -48 19 -17 32
-49 50 -122 13 -54 24 -99 24 -101 0 -10 -23 14 -31 32 -8 18 -8 17 -6 -9 12
-156 830 -201 1124 -63 52 25 64 47 86 164 11 61 21 87 41 107 14 14 26 37 26
51 0 85 123 715 155 794 13 33 43 149 65 259 22 109 78 367 123 573 75 345 84
375 106 386 37 19 41 32 41 132 0 88 1 93 24 101 13 5 26 17 30 26 3 9 6 117
6 239 0 211 -1 225 -21 250 -19 25 -26 26 -112 27 -51 1 -129 4 -174 7 l-82 7
197 75 c357 135 353 133 490 138 67 2 122 7 121 11 0 3 -28 28 -61 55 -148
119 -252 159 -418 160 -58 1 -118 -3 -135 -7 -64 -18 159 135 305 208 38 19
70 39 70 44 0 9 -69 18 -215 27 -65 4 -109 1 -159 -10 -88 -21 -219 -82 -304
-143 -46 -32 -63 -41 -58 -27 33 80 68 185 86 256 11 45 27 100 35 121 22 54
19 59 -21 42 -20 -8 -40 -15 -44 -15 -5 0 -6 45 -3 100 4 64 2 100 -4 100 -6
0 -30 -15 -54 -33 -24 -18 -83 -52 -131 -75 -99 -48 -192 -127 -253 -217 -21
-30 -41 -55 -45 -55 -3 0 -16 33 -29 73 -50 157 -110 240 -221 304 -25 15 -65
41 -89 60 -47 35 -56 39 -66 23z m88 -112 c-2 -3 0 -14 3 -23 5 -13 9 -14 15
-3 8 13 73 -114 109 -215 10 -29 19 -46 19 -39 1 20 -67 192 -96 241 -17 30
-28 40 -33 31 -5 -8 -8 -4 -7 11 l2 25 43 -24 c94 -53 160 -151 202 -304 23
-83 25 -115 9 -155 -11 -28 -11 -28 -28 27 l-18 55 0 -65 c-1 -49 1 -59 8 -40
6 18 7 9 4 -32 -9 -98 -18 -101 -37 -8 -16 80 -17 70 -3 -55 4 -37 4 -38 -5
-10 -5 17 -25 94 -44 171 -32 126 -54 199 -55 184 -1 -3 11 -50 25 -105 30
-115 47 -350 24 -328 -7 6 -18 35 -25 65 l-13 53 -3 -40 c-1 -31 -3 -34 -6
-12 -2 15 -9 27 -14 27 -5 0 -6 12 -3 26 5 21 4 25 -6 19 -10 -6 -11 -1 -6 21
5 23 4 26 -5 14 -8 -12 -9 -8 -5 15 4 18 3 25 -2 17 -5 -8 -15 9 -30 50 -29
85 -40 155 -47 295 -3 65 -9 129 -11 143 l-6 25 24 -25 c14 -14 23 -28 21 -32z
m772 -107 c-6 -66 -10 -81 -26 -86 -38 -12 -166 -104 -207 -148 -45 -50 -117
-156 -127 -188 -4 -10 -15 -19 -25 -19 -21 0 -36 -16 -20 -22 6 -2 2 -30 -10
-73 -12 -43 -26 -144 -35 -265 -9 -107 -18 -199 -20 -205 -3 -5 -3 85 0 200 4
192 3 206 -10 167 -22 -69 -36 -187 -29 -261 4 -45 3 -75 -5 -87 -10 -15 -11
-6 -7 46 4 49 3 57 -4 35 -8 -24 -8 -20 -4 20 17 164 17 191 2 171 -14 -18
-15 -18 -26 12 -6 17 -9 45 -7 62 5 38 55 111 100 147 19 16 35 33 35 38 0 19
97 160 147 215 28 31 63 62 77 69 17 10 33 34 48 74 17 44 39 75 87 123 36 35
67 62 69 59 2 -2 1 -40 -3 -84z m-1335 15 c269 -59 537 -293 616 -540 19 -60
27 -110 30 -196 6 -141 -6 -131 -40 32 -26 121 -50 200 -98 316 -37 89 -48 91
-13 2 32 -81 72 -244 83 -338 8 -71 8 -72 -12 -58 -13 8 -31 45 -48 97 -22 69
-26 76 -22 39 8 -71 -14 -25 -33 70 -9 44 -18 78 -20 76 -9 -8 29 -171 48
-208 24 -46 24 -51 0 -39 -10 6 -22 7 -26 3 -5 -4 -5 -2 -1 5 3 6 2 14 -3 17
-5 3 -12 23 -15 43 -14 77 -38 184 -42 180 -2 -2 3 -38 11 -81 17 -90 18 -109
6 -102 -5 3 -17 40 -26 82 -46 206 -97 316 -187 399 l-43 40 41 -45 c61 -67
78 -101 115 -224 10 -36 12 -37 -49 55 -60 88 -133 166 -219 232 -66 51 -223
137 -251 138 -14 0 -14 2 3 9 31 13 123 11 195 -4z m1133 -88 c-97 -101 -133
-153 -219 -317 -21 -41 -40 -69 -42 -63 -2 6 2 21 8 32 6 12 9 24 7 26 -3 3
-13 -16 -23 -43 -19 -52 -44 -96 -51 -90 -7 7 48 170 81 242 43 92 127 196
200 247 33 23 56 36 51 29 -5 -9 -3 -12 6 -9 8 3 13 11 11 17 -1 7 1 10 6 7 5
-3 18 1 28 9 52 39 27 5 -63 -87z m-1362 66 c121 -36 226 -102 347 -218 118
-113 260 -311 239 -333 -3 -2 -32 34 -66 81 -80 111 -173 195 -267 241 -88 43
-109 43 -27 0 65 -34 157 -116 208 -185 19 -26 35 -50 35 -54 0 -3 -21 9 -47
28 -27 18 -64 41 -83 50 -39 18 -27 9 63 -49 34 -21 66 -39 70 -40 4 0 22 -24
39 -54 17 -30 27 -52 22 -50 -113 50 -228 118 -275 162 -31 29 -61 51 -67 49
-23 -7 -90 70 -137 160 -26 51 -66 122 -87 157 -21 34 -38 65 -38 67 0 7 15 4
71 -12z m1633 -115 c-10 -81 -56 -217 -118 -345 -35 -72 -69 -135 -75 -139 -8
-4 -6 7 4 31 24 59 10 51 -24 -13 -23 -42 -42 -64 -71 -80 -22 -12 -40 -19
-40 -17 0 3 11 27 25 54 14 28 23 50 21 50 -3 0 -26 -30 -52 -67 -64 -92 -67
-95 -49 -43 50 142 250 458 349 549 14 14 26 29 26 35 0 16 -67 -53 -135 -139
-123 -158 -222 -327 -265 -456 -12 -34 -30 -79 -40 -98 l-19 -36 5 40 c4 30 3
36 -5 25 -9 -13 -11 -13 -11 1 0 17 58 190 85 254 36 86 144 232 235 318 50
48 87 87 82 87 -4 0 -51 -44 -104 -97 -116 -119 -199 -243 -255 -383 -47 -115
-51 -119 -27 -26 37 141 128 300 235 407 62 62 142 114 159 104 5 -3 20 1 32
9 33 23 37 20 32 -25z m-258 -2 c-14 -19 -50 -53 -78 -77 -39 -32 -46 -36 -28
-14 82 98 165 169 106 91z m740 -184 l48 -6 -70 -19 c-99 -27 -259 -108 -329
-167 -109 -91 -125 -104 -132 -98 -6 7 34 49 107 111 43 37 43 38 5 10 -22
-15 -62 -47 -90 -70 -31 -25 -64 -43 -85 -46 l-35 -5 60 54 c95 87 212 161
315 199 19 7 28 13 20 13 -47 2 -278 -127 -353 -198 -20 -18 -26 -21 -22 -8
11 27 162 136 240 173 121 58 207 73 321 57z m-46 -86 c-41 -24 -116 -69 -167
-100 -51 -31 -103 -57 -115 -57 -58 1 124 117 274 175 91 35 92 31 8 -18z
m-1970 -83 c17 -4 27 -10 21 -13 -6 -4 26 -7 72 -7 139 0 244 -43 405 -166 29
-23 51 -43 49 -45 -3 -2 -45 10 -95 26 -50 17 -111 33 -134 37 -24 3 -59 16
-78 29 -47 29 -100 57 -100 51 0 -3 20 -17 45 -32 25 -14 45 -28 45 -30 0 -7
-46 5 -133 33 -42 13 -82 23 -88 21 -6 -2 15 -12 47 -23 73 -24 46 -31 -56
-16 -94 15 -320 13 -402 -3 -38 -7 -68 -11 -68 -10 0 2 17 13 38 24 20 12 28
19 18 15 -43 -13 6 23 73 54 110 51 249 73 341 55z m867 -164 c32 -55 46 -107
38 -148 l-7 -37 -25 65 c-45 118 -43 95 8 -119 26 -111 30 -145 14 -129 -11
11 -56 230 -58 283 -1 30 -5 55 -8 55 -5 0 -29 91 -29 112 0 12 40 -37 67 -82z
m1203 46 c60 -13 180 -59 180 -69 0 -3 -28 4 -62 15 -85 27 -256 35 -318 15
-219 -73 -279 -99 -470 -201 -61 -33 -95 -42 -86 -25 4 8 -27 -22 -68 -65 -41
-44 -78 -77 -82 -73 -14 13 63 120 119 168 75 62 164 113 297 166 58 24 97 43
88 43 -9 0 -29 -5 -45 -10 l-28 -10 24 20 c18 16 39 20 95 21 39 1 85 5 101 9
50 13 186 10 255 -4z m-545 -16 c3 -5 -4 -14 -17 -19 -13 -6 -60 -26 -105 -45
-45 -19 -109 -42 -142 -51 -33 -8 -68 -18 -78 -22 -16 -6 -16 -4 1 16 61 69
317 160 341 121z m609 -35 c82 -21 160 -56 146 -65 -8 -5 -2 -11 16 -17 22 -8
-4 -11 -116 -15 -215 -8 -331 -46 -560 -181 -58 -34 -114 -62 -125 -63 -11 0
-31 -4 -45 -8 -69 -20 177 162 310 229 86 44 187 73 285 85 l80 9 -90 -4
c-139 -6 -283 -59 -427 -157 -32 -21 -58 -36 -58 -33 0 13 211 171 257 192 95
44 224 55 327 28z m-1457 -141 c49 -28 81 -67 123 -150 35 -69 36 -74 13 -74
-12 0 -30 23 -52 65 -19 35 -59 88 -90 117 l-55 53 51 -56 c28 -30 58 -71 68
-90 19 -38 15 -35 -43 33 -40 47 -112 114 -167 156 -29 22 -29 22 40 -3 38
-14 89 -37 112 -51z m-322 -17 c65 -66 144 -182 133 -193 -3 -2 -18 15 -33 38
-46 71 -106 138 -170 191 -53 44 -56 50 -30 43 19 -4 57 -34 100 -79z m1291
70 c-44 -28 -173 -133 -244 -200 l-76 -72 49 64 c70 89 145 155 218 190 65 31
85 38 53 18z m-1439 -35 c34 -17 65 -37 68 -43 5 -8 2 -8 -11 -1 -68 35 -231
38 -325 7 -24 -8 -30 -12 -14 -9 83 16 154 23 195 18 80 -10 165 -43 196 -76
16 -17 23 -28 15 -23 -31 18 -190 55 -231 54 -42 -2 -41 -2 15 -9 116 -13 237
-65 295 -125 l35 -37 -65 5 c-48 3 -88 14 -155 44 -131 58 -200 74 -357 80
-76 3 -136 9 -133 13 13 22 122 95 172 116 50 21 70 24 148 21 77 -3 99 -8
152 -35z m186 9 c25 -11 56 -35 71 -53 30 -40 69 -124 64 -139 -2 -6 -35 29
-73 77 -39 47 -83 97 -100 110 -36 29 -22 31 38 5z m763 -34 c-14 -18 -44 -73
-66 -121 -23 -49 -44 -86 -47 -82 -8 8 81 190 106 215 32 32 35 25 7 -12z m46
-29 c-22 -29 -45 -64 -52 -76 -6 -13 -14 -21 -17 -18 -6 6 51 102 80 133 37
40 30 16 -11 -39z m-650 -75 c40 -90 35 -89 -17 1 -50 88 -52 95 -28 75 9 -8
29 -42 45 -76z m803 -10 c-34 -54 -66 -93 -76 -93 -15 0 21 62 54 92 37 35 44
35 22 1z m-736 -52 c-1 -21 -3 -27 -6 -16 -2 11 -8 36 -13 55 -8 32 -8 33 5
16 8 -11 14 -36 14 -55z m801 -26 c-7 -8 -18 -15 -24 -15 -6 0 -2 7 8 15 25
19 32 19 16 0z m493 -74 c15 -12 17 -40 17 -226 0 -185 -2 -214 -16 -226 -25
-21 -2323 -21 -2347 0 -15 12 -17 41 -17 227 0 177 3 215 15 228 14 13 147 15
1174 13 964 -2 1161 -4 1174 -16z m-29 -507 c17 -6 18 -15 12 -88 -4 -44 -11
-85 -17 -91 -7 -7 -387 -11 -1104 -13 -1044 -3 -1094 -2 -1103 15 -5 10 -12
55 -15 100 l-6 82 122 4 c211 7 2091 -1 2111 -9z m-347 -1606 c-3 -8 -6 -5 -6
6 -1 11 2 17 5 13 3 -3 4 -12 1 -19z m-322 -729 c-81 -27 -228 -59 -262 -58
-16 0 39 16 120 34 82 19 154 36 160 39 7 2 19 4 27 4 8 0 -12 -9 -45 -19z
m139 -56 c-8 -37 -21 -74 -29 -84 -20 -21 -102 -65 -140 -73 l-30 -7 30 19
c39 25 65 64 72 110 8 53 20 70 56 86 54 24 56 22 41 -51z m-949 -13 c117 -25
305 -38 425 -30 75 6 67 7 -64 8 -153 2 -320 22 -397 47 -49 16 -38 15 99 -12
43 -8 168 -17 279 -20 167 -5 219 -2 305 13 152 26 162 25 166 -11 6 -65 -77
-142 -183 -171 -81 -21 -353 -30 -467 -15 -115 15 -220 43 -290 76 -58 27 -70
44 -83 115 -4 19 -9 42 -11 51 -4 15 4 14 58 -6 35 -13 108 -33 163 -45z m492
4 c-3 -3 -12 -4 -19 -1 -8 3 -5 6 6 6 11 1 17 -2 13 -5z"/>
<path d="M2409 4609 c17 -25 44 -79 60 -120 17 -41 31 -68 31 -61 0 28 -61
159 -90 192 l-30 35 29 -46z"/>
<path d="M2376 4520 c3 -14 11 -32 16 -40 6 -10 7 -7 2 10 -3 14 -11 32 -16
40 -6 10 -7 7 -2 -10z"/>
<path d="M2502 4390 c0 -14 2 -19 5 -12 2 6 2 18 0 25 -3 6 -5 1 -5 -13z"/>
<path d="M2471 4355 c0 -5 6 -37 14 -70 14 -58 14 -59 9 -11 -5 44 -22 106
-23 81z"/>
<path d="M2411 4134 c0 -11 3 -14 6 -6 3 7 2 16 -1 19 -3 4 -6 -2 -5 -13z"/>
<path d="M1850 4456 c0 -2 8 -10 18 -17 15 -13 16 -12 3 4 -13 16 -21 21 -21
13z"/>
<path d="M1960 4436 c0 -2 8 -10 18 -17 15 -13 16 -12 3 4 -13 16 -21 21 -21
13z"/>
<path d="M1890 4426 c0 -2 8 -10 18 -17 15 -13 16 -12 3 4 -13 16 -21 21 -21
13z"/>
<path d="M2042 4325 c35 -56 78 -141 100 -200 11 -29 16 -38 13 -20 -7 38
-102 230 -122 247 -9 7 -5 -5 9 -27z"/>
<path d="M2191 4104 c0 -11 3 -14 6 -6 3 7 2 16 -1 19 -3 4 -6 -2 -5 -13z"/>
<path d="M2835 4468 l-60 -63 63 60 c34 33 62 61 62 62 0 8 -10 -1 -65 -59z"/>
<path d="M2665 4209 c-4 -6 -5 -12 -2 -15 2 -3 7 2 10 11 7 17 1 20 -8 4z"/>
<path d="M2711 3814 c0 -11 3 -14 6 -6 3 7 2 16 -1 19 -3 4 -6 -2 -5 -13z"/>
<path d="M3488 4223 c7 -3 16 -2 19 1 4 3 -2 6 -13 5 -11 0 -14 -3 -6 -6z"/>
<path d="M3329 4113 c-13 -16 -12 -17 4 -4 9 7 17 15 17 17 0 8 -8 3 -21 -13z"/>
<path d="M1403 4003 c20 -2 54 -2 75 0 20 2 3 4 -38 4 -41 0 -58 -2 -37 -4z"/>
<path d="M1318 3993 c6 -2 18 -2 25 0 6 3 1 5 -13 5 -14 0 -19 -2 -12 -5z"/>
<path d="M1555 3990 c17 -4 39 -8 50 -8 16 0 15 2 -5 8 -14 4 -36 8 -50 8 -22
0 -22 -1 5 -8z"/>
<path d="M1278 3983 c7 -3 16 -2 19 1 4 3 -2 6 -13 5 -11 0 -14 -3 -6 -6z"/>
<path d="M3328 3933 c7 -3 16 -2 19 1 4 3 -2 6 -13 5 -11 0 -14 -3 -6 -6z"/>
<path d="M2853 3648 c-15 -20 -25 -38 -20 -38 3 0 12 11 21 25 17 26 16 35 -1
13z"/>
<path d="M3766 3861 c-4 -5 3 -7 14 -4 23 6 26 13 6 13 -8 0 -17 -4 -20 -9z"/>
<path d="M3818 3853 c6 -2 18 -2 25 0 6 3 1 5 -13 5 -14 0 -19 -2 -12 -5z"/>
<path d="M3688 3843 c7 -3 16 -2 19 1 4 3 -2 6 -13 5 -11 0 -14 -3 -6 -6z"/>
<path d="M3868 3843 c7 -3 16 -2 19 1 4 3 -2 6 -13 5 -11 0 -14 -3 -6 -6z"/>
<path d="M3628 3833 c7 -3 16 -2 19 1 4 3 -2 6 -13 5 -11 0 -14 -3 -6 -6z"/>
<path d="M3578 3823 c7 -3 16 -2 19 1 4 3 -2 6 -13 5 -11 0 -14 -3 -6 -6z"/>
<path d="M3470 3790 c-8 -5 -10 -10 -5 -10 6 0 17 5 25 10 8 5 11 10 5 10 -5
0 -17 -5 -25 -10z"/>
<path d="M3414 3764 c-18 -14 -18 -14 6 -3 31 14 36 19 24 19 -6 0 -19 -7 -30
-16z"/>
<path d="M3260 3669 c-66 -45 -123 -85 -126 -90 -3 -6 52 29 123 77 141 96
139 94 130 94 -4 0 -61 -36 -127 -81z"/>
<path d="M1661 1144 c0 -11 3 -14 6 -6 3 7 2 16 -1 19 -3 4 -6 -2 -5 -13z"/>
</g>
</svg>