<?xml version="1.0" standalone="no"?>
<!DOCTYPE svg PUBLIC "-//W3C//DTD SVG 20010904//EN"
 "http://www.w3.org/TR/2001/REC-SVG-20010904/DTD/svg10.dtd">
<svg version="1.0" xmlns="http://www.w3.org/2000/svg"
 width="512.000000pt" height="512.000000pt" viewBox="0 0 512.000000 512.000000"
 preserveAspectRatio="xMidYMid meet">
<metadata>
Created by potrace 1.16, written by Peter Selinger 2001-2019
</metadata>
<g transform="translate(0.000000,512.000000) scale(0.100000,-0.100000)"
fill="#000000" stroke="none">
<path d="M1831 4623 c-107 -120 -151 -261 -117 -383 8 -30 13 -56 12 -58 -2
-1 -18 11 -36 28 -32 30 -33 36 -15 85 8 20 8 20 -8 0 -14 -18 -16 -17 -45 30
-61 98 -55 99 -86 -5 -16 -51 -32 -117 -35 -146 l-6 -54 -45 36 c-72 58 -122
83 -205 104 -97 25 -285 28 -325 5 l-25 -14 38 -1 c30 0 44 -8 78 -42 50 -52
119 -193 149 -308 29 -109 75 -221 116 -287 l33 -52 -47 -7 c-26 -4 -94 -7
-152 -8 -110 0 -158 13 -229 64 -16 11 -32 20 -35 20 -7 0 41 -134 66 -184 11
-22 43 -64 72 -94 l51 -54 -120 4 c-66 3 -128 8 -139 13 -16 7 -17 5 -11 -16
4 -13 23 -55 41 -93 19 -39 34 -71 34 -72 0 0 -20 -4 -43 -7 -58 -8 -134 -34
-177 -60 l-35 -22 51 -6 c27 -4 90 -23 140 -43 141 -59 224 -86 265 -86 49 0
191 -21 185 -27 -3 -3 -38 -11 -78 -18 -103 -18 -179 -49 -267 -109 -169 -115
-271 -317 -271 -535 l0 -86 73 76 c39 42 101 109 137 149 65 74 119 107 200
125 l35 8 -71 -75 c-79 -83 -118 -137 -159 -218 -22 -44 -65 -153 -65 -166 0
-1 40 28 90 65 214 161 439 254 708 292 109 15 307 8 346 -13 33 -17 49 -15
-233 -34 -84 -6 -97 -10 -125 -34 -30 -28 -31 -30 -34 -137 -5 -139 10 -252
36 -273 16 -12 21 -33 26 -118 19 -283 102 -586 226 -818 l37 -70 -24 -22
c-31 -28 -27 -43 44 -149 92 -140 105 -148 278 -178 274 -46 614 -46 889 0
127 22 166 42 223 115 103 133 124 180 89 209 -12 10 -3 36 56 158 92 194 130
287 167 413 30 104 81 366 81 425 1 22 9 35 32 50 57 36 73 84 73 215 0 185
-25 207 -230 209 -129 2 -151 15 -51 30 198 29 381 -56 551 -256 62 -72 147
-198 185 -273 l23 -45 13 31 c7 17 19 61 26 98 l14 67 20 -23 c12 -13 33 -41
48 -63 22 -32 26 -35 22 -15 -3 14 -10 66 -16 115 -6 50 -18 117 -26 150 -21
83 -93 227 -154 307 -69 91 -193 205 -275 253 -58 34 -65 40 -45 43 145 16
270 58 338 111 40 32 57 39 109 43 67 6 144 42 187 87 29 31 96 140 96 157 0
9 -10 10 -37 3 -44 -10 -144 -12 -167 -3 -14 5 -13 10 5 35 54 76 75 226 46
323 -11 35 -12 27 -12 -80 0 -114 -1 -122 -32 -184 -17 -36 -48 -81 -67 -99
l-36 -35 0 41 c0 68 -8 77 -37 42 -31 -36 -69 -56 -188 -98 l-90 -32 -60 25
c-38 15 -54 27 -45 30 78 30 141 46 202 53 l73 8 -62 5 -63 5 153 155 c83 85
175 185 204 222 50 64 51 67 30 74 -12 3 -51 19 -87 34 -106 45 -120 44 -36
-4 91 -51 92 -51 -59 -60 -96 -6 -168 -22 -228 -51 -20 -9 -44 -14 -53 -11
-14 5 -11 11 16 31 44 33 25 32 -22 0 -28 -19 -50 -25 -90 -25 l-52 0 49 51
c32 32 77 63 125 86 174 82 220 106 218 113 -2 3 -45 45 -96 92 -144 132 -254
180 -367 159 -28 -5 -51 -9 -52 -8 -4 4 65 204 80 234 10 18 34 49 54 69 l37
37 -77 -5 -77 -5 0 71 c0 39 -3 95 -7 124 -5 42 -9 51 -22 47 -9 -2 -52 -11
-97 -19 -102 -17 -178 -55 -254 -123 -70 -64 -160 -195 -191 -278 -12 -33 -25
-63 -29 -68 -3 -4 -14 19 -24 50 -10 32 -27 82 -38 111 l-20 54 -25 -23 c-29
-28 -79 -113 -88 -151 -10 -38 -17 -35 -38 15 -9 23 -29 56 -43 72 -14 17 -23
24 -19 18 10 -20 -5 -38 -71 -86 -38 -28 -68 -60 -81 -85 l-20 -41 -16 35
c-10 19 -17 40 -17 47 0 7 25 25 55 41 l55 28 0 57 c0 99 -32 186 -111 303
-22 31 -39 63 -39 70 -1 7 -15 -3 -33 -22 -18 -20 -53 -53 -79 -73 -41 -34
-47 -36 -56 -21 -8 15 -11 14 -27 -10 -10 -15 -29 -57 -43 -94 -23 -59 -26
-86 -30 -232 -4 -155 -11 -200 -31 -200 -5 0 -12 16 -15 35 -10 49 -92 261
-122 312 -13 23 -52 77 -87 120 -34 43 -78 109 -98 146 l-36 69 -52 -59z m68
-19 c7 -19 51 -86 98 -147 46 -62 98 -141 115 -176 l30 -64 -21 -44 c-24 -50
-41 -48 -41 5 0 31 -51 162 -63 162 -2 0 4 -24 14 -52 10 -29 18 -69 18 -88
l-1 -35 -13 45 c-18 62 -18 40 0 -45 14 -70 9 -135 -13 -157 -13 -13 -73 161
-66 192 4 18 3 21 -4 11 -12 -17 -19 -5 -29 50 l-8 44 -7 -45 c-5 -33 -6 -25
-4 33 2 42 2 76 0 74 -2 -2 -8 -21 -14 -43 -8 -31 -9 -20 -5 56 3 52 7 109 10
125 3 17 -1 8 -9 -20 -8 -27 -17 -77 -21 -110 -9 -70 -12 -66 -25 35 l-9 75 3
-90 c3 -68 10 -105 29 -152 26 -63 22 -83 -7 -41 -18 25 -21 17 -6 -13 8 -15
7 -19 -4 -19 -8 0 -17 8 -19 18 -4 13 -5 11 -6 -5 -1 -17 -7 -23 -26 -23 -30
0 -49 28 -65 97 -15 68 -5 148 30 220 27 58 104 163 118 163 4 0 14 -16 21
-36z m681 -65 c51 -73 80 -159 80 -239 0 -75 -18 -88 -23 -18 l-3 53 -2 -57
c-2 -51 -5 -58 -34 -76 -18 -11 -36 -18 -40 -16 -4 3 -8 25 -8 50 0 25 -5 44
-11 44 -6 0 -8 11 -5 28 3 15 8 50 10 77 l5 50 -10 -40 c-6 -22 -14 -69 -19
-105 -8 -59 -8 -54 -7 47 2 117 -5 123 -18 14 -9 -79 -25 -63 -25 26 0 62 42
223 59 223 4 0 27 -27 51 -61z m1074 9 c15 -128 5 -171 -41 -183 -44 -10 -113
-54 -173 -109 -51 -48 -48 -37 9 27 14 15 22 27 18 27 -4 0 19 39 52 88 60 89
81 125 81 138 0 11 -57 -64 -107 -138 -25 -38 -47 -68 -49 -68 -2 0 7 23 22
51 48 96 17 59 -47 -55 -35 -63 -65 -114 -66 -112 -1 1 9 33 22 72 14 38 24
83 24 99 0 24 -4 18 -18 -28 -16 -49 -161 -330 -168 -324 -1 2 13 47 32 102
18 55 36 118 40 140 4 29 -1 21 -18 -30 -68 -196 -184 -445 -200 -428 -27 26
16 249 72 385 60 142 183 288 288 341 41 21 154 51 209 56 6 1 14 -22 18 -51z
m-1202 -58 c-9 -33 -19 -60 -22 -60 -4 0 -13 15 -22 32 -15 33 -15 33 21 60
20 15 37 28 37 28 1 0 -5 -27 -14 -60z m-46 -83 c23 -52 29 -83 37 -195 6 -84
6 -137 0 -143 -12 -12 -52 123 -63 211 l-7 65 -2 -54 c0 -29 9 -94 20 -143 23
-96 21 -130 -6 -194 l-18 -39 -18 58 c-55 174 -62 329 -18 455 25 74 33 72 75
-21z m-797 -90 l30 -53 -23 -63 -23 -64 -7 34 c-10 49 -20 199 -13 199 3 0 19
-24 36 -53z m2144 21 c-29 -32 -49 -74 -89 -190 -42 -121 -73 -185 -123 -253
l-36 -50 -5 157 c-3 86 -9 160 -13 164 -4 4 -21 -2 -37 -15 -36 -26 -39 -17
-7 18 12 14 -3 3 -34 -25 -30 -28 -70 -59 -89 -69 l-33 -17 41 58 c45 63 173
173 239 205 35 17 94 29 192 38 10 1 8 -6 -6 -21z m-718 -128 c38 -113 40
-136 22 -225 l-13 -60 -12 34 c-7 19 -12 55 -12 80 -1 25 -7 71 -15 101 -16
66 -19 46 -4 -33 12 -67 4 -90 -20 -54 -9 13 -22 22 -29 19 -10 -3 -12 5 -8
34 l6 39 -15 -40 c-9 -22 -20 -44 -27 -50 -13 -13 -3 81 16 135 15 44 66 134
72 127 2 -2 20 -51 39 -107z m-1466 -100 l1 -95 -25 37 c-30 45 -33 108 -8
189 l17 54 7 -45 c4 -25 8 -88 8 -140z m922 36 l-26 -40 -7 55 c-3 30 -6 72
-7 94 l-1 39 34 -54 34 -54 -27 -40z m-1263 88 c127 -28 252 -115 304 -211 28
-52 133 -314 144 -360 6 -24 -5 -16 -69 48 -89 91 -121 137 -153 221 -15 41
-23 54 -23 38 -1 -41 43 -150 89 -225 112 -180 140 -229 140 -243 0 -12 -7 -9
-26 9 -70 65 -180 257 -229 401 -13 40 -25 66 -25 58 0 -8 -8 -1 -18 15 -11
17 -40 53 -66 80 l-48 50 35 -45 c57 -74 96 -144 121 -218 13 -38 29 -80 36
-93 20 -43 -35 27 -119 151 -108 158 -149 208 -212 260 l-54 43 46 -45 c71
-71 110 -122 205 -273 72 -114 181 -261 271 -366 12 -15 6 -14 -64 1 -96 20
-107 26 -165 88 -56 59 -83 111 -153 291 -54 139 -99 226 -154 295 -17 21 -31
43 -31 48 0 12 133 1 218 -18z m1612 -111 c16 -54 30 -102 30 -108 0 -5 -16
-28 -36 -50 l-35 -40 5 65 c3 42 2 56 -4 40 -4 -14 -8 -44 -9 -67 -1 -23 -6
-45 -12 -49 -9 -5 -10 12 -5 62 10 102 28 244 32 244 2 0 17 -44 34 -97z
m-1151 53 c80 -54 109 -60 175 -38 l55 19 20 -51 c11 -28 30 -84 41 -125 12
-40 24 -81 27 -90 3 -9 -14 5 -37 32 -23 26 -47 47 -53 47 -7 -1 -3 -8 8 -18
47 -41 48 -54 2 -24 -26 16 -74 40 -107 52 -56 21 -59 24 -54 49 4 14 11 35
16 46 6 13 0 9 -15 -9 -18 -20 -26 -24 -30 -15 -3 8 -6 3 -7 -11 -1 -20 -6
-14 -31 33 -16 31 -33 57 -38 57 -4 0 -20 -26 -35 -57 l-27 -58 6 50 c6 54 25
145 30 145 2 0 26 -15 54 -34z m1075 -96 c-9 -36 -20 -108 -23 -160 -5 -85
-20 -140 -38 -140 -3 0 -3 39 0 88 4 71 4 81 -5 52 -8 -25 -13 -30 -16 -17 -3
17 3 37 42 130 22 50 7 47 -27 -5 -20 -31 -27 -37 -28 -23 0 19 -1 19 -9 0 -7
-16 -9 -11 -9 22 -1 23 -6 45 -11 48 -19 12 24 66 80 101 l55 35 3 -33 c2 -18
-5 -62 -14 -98z m-177 -18 c26 -60 28 -107 13 -261 -16 -148 -19 -153 -59 -91
-36 55 -36 53 -16 205 4 31 1 25 -15 -25 -32 -101 -29 -135 14 -205 69 -112
108 -297 105 -500 -1 -68 -2 -65 -23 71 -27 166 -52 251 -111 385 -24 53 -41
100 -37 103 3 3 0 6 -7 6 -8 0 -11 8 -8 20 3 10 -1 24 -9 31 -11 9 -14 8 -14
-7 -1 -18 -1 -18 -16 1 -30 38 -3 122 86 275 48 82 57 82 97 -8z m-422 -13
c23 -74 26 -119 6 -119 -4 0 -13 27 -20 61 -16 80 -22 71 -11 -16 5 -39 6
-101 2 -139 l-7 -70 -28 38 c-16 20 -33 58 -37 84 l-9 47 2 -42 c2 -26 -1 -39
-7 -33 -22 22 -8 103 34 187 22 45 43 83 45 83 2 0 16 -37 30 -81z m1295 -9
c-14 -74 -61 -156 -148 -257 -85 -99 -142 -184 -214 -317 -27 -50 -47 -80 -44
-66 63 271 105 369 213 492 l37 43 -48 -45 c-58 -55 -91 -101 -145 -205 l-42
-80 7 55 c9 74 52 175 107 252 62 86 89 109 187 162 97 52 106 49 90 -34z
m-1270 25 c0 -5 -5 -3 -10 5 -5 8 -10 20 -10 25 0 6 5 3 10 -5 5 -8 10 -19 10
-25z m-505 -23 c18 -33 19 -50 15 -162 l-5 -125 -22 40 c-11 22 -29 67 -38 99
-16 55 -16 62 0 122 9 35 20 64 24 64 3 0 15 -17 26 -38z m1795 -136 c-33
-282 -144 -503 -307 -610 -74 -50 -173 -106 -173 -100 0 3 31 70 69 149 80
167 146 271 260 410 94 115 128 177 144 267 11 60 12 61 15 23 2 -22 -2 -85
-8 -139z m-1265 94 c5 -16 4 -22 -3 -15 -5 6 -12 24 -16 40 -7 34 7 15 19 -25z
m1655 14 c25 -8 64 -27 87 -42 64 -42 206 -166 195 -170 -6 -2 -41 13 -80 33
-122 62 -210 66 -347 17 -78 -27 -104 -43 -187 -114 -61 -52 -67 -53 -44 -10
32 61 171 161 272 197 84 30 62 33 -30 5 -36 -11 -95 -41 -132 -65 -37 -25
-68 -44 -70 -42 -5 5 84 149 107 173 40 43 129 50 229 18z m-887 -41 c56 -126
60 -202 22 -423 -29 -175 -52 -248 -113 -360 -25 -47 -72 -134 -104 -195 -50
-94 -58 -104 -53 -70 3 22 14 117 25 211 10 93 28 212 39 264 24 109 25 120 5
65 -27 -71 -74 -285 -75 -338 l-1 -52 -8 45 c-12 71 -20 168 -12 141 5 -15 8
14 10 74 2 85 10 162 28 255 l4 25 -11 -25 c-6 -14 -19 -70 -28 -125 l-17
-100 -12 62 c-22 107 24 286 103 403 38 56 157 199 166 200 4 0 18 -26 32 -57z
m-629 -108 c6 -29 5 -28 -20 10 -14 22 -23 30 -19 18 4 -15 -6 -37 -34 -78
-22 -31 -45 -73 -52 -93 l-12 -35 -14 34 c-44 105 -37 161 27 224 l39 38 -20
-62 c-10 -35 -19 -73 -18 -84 0 -12 6 -2 13 23 7 25 21 69 32 98 l19 54 26
-59 c14 -32 29 -71 33 -88z m295 31 c14 -78 14 -208 -1 -327 l-12 -96 -27 81
c-28 79 -28 82 -13 131 9 27 18 106 21 174 6 128 14 137 32 37z m-791 39 c133
-61 271 -196 336 -330 59 -120 129 -405 151 -610 4 -33 20 -118 36 -189 16
-72 29 -132 29 -135 0 -34 -46 138 -80 298 -30 143 -91 330 -154 471 -52 117
-136 263 -159 277 -6 3 -2 -7 10 -23 23 -32 70 -125 56 -109 -5 6 -28 35 -51
66 -77 102 -81 92 -9 -18 40 -60 93 -149 119 -199 48 -92 124 -300 159 -439
22 -84 61 -297 55 -302 -1 -2 -19 61 -40 140 -52 198 -112 389 -148 469 -17
38 -32 67 -34 65 -2 -1 14 -45 35 -97 42 -104 94 -276 89 -292 -2 -6 -33 51
-68 126 -35 75 -65 134 -67 132 -2 -2 26 -75 63 -162 37 -87 83 -209 104 -269
20 -61 45 -125 54 -144 28 -54 -2 -24 -49 48 -92 143 -221 447 -334 786 -59
179 -99 281 -107 272 -2 -2 7 -28 20 -58 30 -68 63 -173 81 -258 l13 -63 -44
48 c-73 81 -142 191 -165 262 -12 41 -23 108 -26 171 l-6 104 37 -6 c20 -3 62
-18 94 -32z m2177 -119 l60 -24 -30 -12 c-16 -7 -48 -18 -70 -26 -69 -25 -121
-62 -182 -128 -58 -63 -59 -64 -132 -75 -40 -6 -99 -20 -130 -31 -30 -10 -58
-17 -60 -15 -2 3 25 33 61 68 69 69 167 127 273 159 46 14 51 17 20 12 -54 -8
-158 -49 -227 -91 -51 -30 -158 -133 -158 -152 0 -4 -18 -17 -40 -30 l-40 -22
62 93 c34 51 79 114 100 140 112 135 334 196 493 134z m-1683 -33 c154 -168
262 -523 250 -826 -1 -36 -6 -56 -12 -52 -5 3 -10 16 -10 29 0 32 -38 172 -63
231 -28 69 -97 174 -137 210 l-34 30 36 -45 c81 -102 137 -225 169 -373 32
-147 29 -194 -21 -319 -23 -60 -44 -108 -46 -108 -7 0 -28 95 -90 405 -36 182
-83 401 -105 487 -48 192 -49 222 -8 299 18 32 35 59 39 59 3 0 18 -12 32 -27z
m-530 -303 c10 -14 49 -55 85 -92 73 -75 70 -86 -10 -34 -75 48 -102 82 -131
164 -34 97 -33 109 6 42 17 -30 39 -66 50 -80z m2538 125 c0 -3 -19 -30 -42
-60 -27 -34 -49 -53 -58 -50 -8 2 -73 16 -145 30 -71 15 -131 28 -133 29 -1 2
26 11 60 22 54 15 105 21 291 32 15 1 27 0 27 -3z m-3361 -74 c29 -6 118 -11
199 -11 146 0 211 -11 137 -23 -20 -3 -72 -24 -115 -46 -90 -47 -105 -49 -163
-21 l-42 21 30 -26 c17 -13 34 -25 38 -25 5 0 6 -8 2 -19 -4 -14 11 -29 77
-73 46 -30 88 -58 95 -62 6 -3 62 -17 123 -31 61 -13 121 -31 133 -40 27 -19
29 -19 -95 4 -103 19 -347 36 -334 24 4 -4 65 -10 137 -13 74 -3 133 -10 137
-16 4 -6 15 -15 26 -21 16 -9 7 -14 -55 -33 -41 -12 -108 -29 -149 -38 -69
-14 -80 -14 -132 1 -31 10 -77 33 -102 52 -25 19 -46 33 -46 30 0 -13 72 -70
115 -91 62 -29 122 -31 198 -4 61 22 87 26 72 11 -12 -11 -189 -61 -216 -61
-26 0 -108 42 -148 76 -33 27 -69 83 -96 147 l-16 39 183 -5 183 -5 -53 21
c-92 35 -179 128 -222 237 l-21 52 34 -20 c19 -11 58 -25 86 -31z m3132 -43
l86 -10 -134 -132 c-149 -147 -224 -196 -298 -196 -24 0 -46 4 -49 8 -3 5 18
20 46 33 58 27 136 99 187 174 30 43 24 39 -42 -31 -58 -62 -92 -89 -149 -117
-79 -40 -133 -56 -127 -39 2 5 32 44 67 87 68 83 132 130 200 147 23 6 41 13
38 15 -7 7 -115 -26 -161 -49 -22 -11 -81 -63 -130 -114 l-90 -94 -90 -24
c-50 -14 -108 -32 -130 -41 l-40 -16 45 40 c25 22 84 63 133 92 48 28 87 53
87 55 0 2 -35 -13 -78 -35 -86 -43 -163 -98 -202 -143 -15 -17 -41 -33 -63
-38 l-38 -8 17 26 c49 77 97 122 210 200 11 7 -10 -2 -45 -20 -62 -32 -189
-143 -224 -197 -33 -50 -26 -12 13 68 69 142 193 247 366 310 183 67 349 80
595 49z m-2532 -46 c147 -57 313 -218 400 -390 26 -51 81 -192 75 -192 -2 0
-28 37 -58 83 -130 201 -283 326 -456 372 -64 17 -175 19 -273 5 -66 -10 -71
-9 -119 17 l-50 27 33 9 c18 5 51 21 73 37 71 48 120 61 226 56 65 -2 112 -10
149 -24z m1058 -74 c-3 -8 -6 -5 -6 6 -1 11 2 17 5 13 3 -3 4 -12 1 -19z m40
-413 c-3 -103 -8 -133 -35 -210 l-32 -90 5 85 c3 47 10 137 15 200 5 63 10
178 11 255 l1 140 19 -130 c14 -92 19 -166 16 -250z m-1104 332 c112 -43 219
-125 319 -245 l60 -73 -87 70 c-118 95 -220 146 -362 182 -63 16 -123 29 -133
29 -25 0 -153 40 -147 46 12 13 110 23 192 20 67 -3 107 -10 158 -29z m1452
-171 c-64 -61 -123 -126 -141 -157 -109 -187 -128 -218 -131 -215 -2 2 9 39
26 84 62 170 159 296 276 359 33 18 64 33 70 33 5 0 -40 -47 -100 -104z m92
32 c-8 -18 -25 -58 -37 -88 -29 -68 -42 -84 -105 -126 -27 -18 -63 -43 -80
-56 l-30 -23 19 30 c44 68 197 265 218 279 30 21 30 21 15 -16z m1113 -8 c-10
-55 -33 -86 -82 -111 -37 -19 -46 -20 -82 -9 -23 7 -54 19 -71 27 l-29 16 79
27 c87 29 160 64 170 80 14 23 22 8 15 -30z m200 -10 c12 -8 9 -10 -11 -10
-14 0 -48 -3 -75 -7 -45 -6 -48 -5 -35 10 15 19 96 23 121 7z m-640 -29 c36
-11 90 -36 120 -55 138 -88 203 -105 321 -81 129 27 175 43 225 81 25 19 43
30 38 22 -27 -46 -60 -78 -106 -104 -50 -27 -60 -29 -163 -28 -67 0 -147 8
-205 19 -144 30 -201 26 -290 -16 -83 -40 -234 -149 -361 -261 -161 -142 -195
-164 -334 -218 -33 -13 -72 -32 -87 -42 -39 -27 -42 -23 -17 22 24 41 80 90
179 152 30 19 100 70 155 113 183 144 213 165 297 210 46 25 80 45 76 45 -13
0 -192 -81 -248 -112 -30 -17 -100 -59 -155 -93 -55 -34 -115 -70 -134 -80
l-34 -17 44 52 c118 140 327 278 492 326 l52 14 -44 -5 c-225 -29 -618 -300
-770 -533 -48 -73 -51 -77 -35 -42 50 105 181 260 342 405 173 156 274 219
397 245 58 13 171 4 245 -19z m680 -16 c-18 -19 -53 -43 -76 -54 -53 -25 -145
-40 -187 -31 -30 6 -30 7 -9 14 12 4 22 14 22 21 0 31 59 60 148 71 147 19
142 20 102 -21z m-3592 -11 l47 -37 -50 6 c-27 3 -93 9 -145 13 -101 7 -100
10 5 39 76 21 92 18 143 -21z m646 -9 c71 -25 115 -53 66 -42 -14 3 -50 8 -80
11 -47 5 -44 4 26 -12 99 -22 174 -58 234 -111 l45 -40 -112 39 c-120 42 -267
74 -311 67 -22 -3 -20 -4 10 -6 47 -1 184 -45 265 -83 124 -58 336 -246 398
-353 24 -40 62 -124 52 -115 -3 3 -28 39 -55 80 -92 140 -175 213 -347 304
-77 40 -76 39 42 -52 153 -117 226 -211 248 -319 13 -66 -20 -39 -229 191 -97
106 -175 165 -276 207 -111 47 -307 99 -396 105 -46 4 -84 11 -84 16 0 14 79
46 166 68 47 12 114 20 173 21 96 1 96 1 36 10 -91 13 -94 15 -45 26 69 17 99
15 174 -12z m170 -9 c81 -37 150 -95 296 -248 130 -137 167 -184 220 -273 30
-52 16 -38 -57 60 -73 96 -122 144 -228 221 -44 32 -98 75 -120 94 -22 20 -78
65 -125 100 -47 35 -89 67 -95 73 -17 16 54 -1 109 -27z m-889 -21 c66 -8 198
-36 207 -44 4 -3 -2 -17 -13 -30 -19 -24 -23 -24 -66 -13 -24 7 -95 33 -156
57 -119 48 -120 47 28 30z m2342 -96 c-88 -58 -183 -142 -239 -212 -21 -27
-38 -46 -38 -43 0 4 13 35 29 70 50 110 144 194 250 222 78 21 78 16 -2 -37z
m940 -21 c70 -9 81 -13 71 -25 -22 -27 -106 -62 -174 -73 -66 -11 -254 -4
-254 9 0 3 56 19 125 36 68 16 122 31 120 33 -2 2 -47 -3 -102 -12 -121 -19
-203 -27 -203 -20 0 12 113 55 166 63 63 10 120 7 251 -11z m-2647 -106 l85
-29 -110 -1 c-78 0 -133 -6 -191 -21 -218 -56 -418 -162 -523 -277 -57 -62
-56 -49 1 59 44 81 97 138 183 196 167 111 368 138 555 73z m53 -62 c51 -8
182 -58 174 -66 -1 -2 -48 1 -102 7 -169 17 -385 -16 -508 -77 -129 -65 -276
-201 -392 -362 -54 -75 -60 -80 -63 -56 -2 14 4 57 13 95 31 125 122 236 263
318 210 122 427 172 615 141z m2286 -31 c79 -27 222 -121 282 -186 104 -112
190 -270 213 -393 5 -23 -14 5 -56 85 -54 104 -74 132 -153 211 -151 152 -299
223 -519 247 l-110 13 34 21 c54 32 59 33 155 29 58 -3 113 -12 154 -27z
m-982 -38 c-12 -22 -25 -37 -29 -35 -4 3 -18 -17 -32 -44 -13 -26 -32 -54 -40
-61 -18 -15 -22 -36 -4 -25 7 4 8 3 4 -5 -4 -6 -11 -9 -16 -6 -4 3 -18 -10
-29 -29 -12 -18 -28 -39 -35 -45 -12 -10 -13 -5 -5 29 16 70 49 122 122 193
39 37 74 67 78 67 4 0 -2 -18 -14 -39z m-217 -36 c0 -54 -6 -77 -32 -130 -58
-114 -65 -73 -16 87 18 59 36 108 41 108 4 0 7 -29 7 -65z m1145 -30 c118 -25
227 -86 320 -179 162 -165 219 -323 180 -504 l-18 -83 -39 73 c-137 252 -351
442 -545 483 -47 10 -139 15 -293 16 -208 1 -222 2 -191 15 62 27 144 38 305
38 137 1 154 3 120 13 -22 6 -93 12 -159 13 -119 2 -119 3 -70 15 116 30 287
12 409 -44 126 -57 277 -178 342 -276 19 -27 34 -45 34 -40 0 19 -71 119 -118
168 -61 63 -219 167 -307 203 -62 24 -87 28 -215 33 l-145 6 45 19 c109 45
228 55 345 31z m-2545 -9 c0 -13 -106 -63 -182 -87 -48 -15 -88 -25 -88 -23 0
2 30 21 68 43 70 42 202 86 202 67z m1083 -84 c14 -26 28 -65 31 -87 6 -36 2
-31 -34 40 -50 102 -52 105 -36 99 8 -3 25 -26 39 -52z m-610 13 c31 -10 56
-19 54 -21 -2 -2 -37 3 -78 12 -54 12 -102 14 -179 10 -123 -6 -198 -25 -296
-72 -76 -37 -227 -151 -237 -179 -4 -9 16 3 43 27 235 206 544 260 830 145
l55 -22 -160 -6 c-178 -7 -295 -28 -440 -79 -153 -55 -317 -146 -443 -248
l-43 -35 47 89 c62 116 98 166 176 239 96 92 152 122 288 150 89 19 305 13
383 -10z m781 -75 c18 -23 26 -43 26 -71 0 -49 -12 -44 -45 19 -13 26 -34 62
-46 81 l-22 33 30 -16 c17 -8 42 -29 57 -46z m-218 -96 c10 -18 15 -36 11 -40
-16 -16 -40 12 -76 88 l-40 83 44 -49 c24 -26 51 -63 61 -82z m331 54 c-3 -8
-6 -5 -6 6 -1 11 2 17 5 13 3 -3 4 -12 1 -19z m1117 -143 c34 -35 41 -208 10
-271 -28 -57 -99 -89 -239 -108 -392 -55 -1194 -60 -1642 -11 -226 25 -241 31
-254 112 -11 70 -11 215 1 250 l11 29 737 -3 c405 -2 847 0 982 5 379 14 377
14 394 -3z m-1783 -435 c186 -18 966 -25 1207 -11 185 11 415 34 468 47 21 5
21 5 8 -93 -17 -127 -49 -265 -86 -378 -54 -162 -221 -469 -289 -532 -38 -34
-107 -61 -210 -80 -139 -26 -637 -26 -794 0 -132 23 -202 48 -238 85 -101 105
-235 589 -238 860 0 49 -2 53 -11 32 -6 -15 -8 -86 -5 -185 5 -166 23 -279 71
-445 14 -46 24 -86 22 -87 -5 -5 -62 126 -95 221 -49 139 -101 429 -101 564
l0 38 83 -12 c46 -7 139 -18 208 -24z m104 -1059 c235 -58 817 -66 1086 -15
42 8 103 23 135 34 31 11 59 18 62 15 9 -8 -47 -92 -82 -123 -81 -71 -284
-105 -616 -105 -367 0 -590 41 -663 123 -31 33 -77 108 -77 124 0 3 24 -5 53
-18 28 -13 75 -28 102 -35z"/>
<path d="M1801 4344 c0 -11 3 -14 6 -6 3 7 2 16 -1 19 -3 4 -6 -2 -5 -13z"/>
<path d="M1811 4309 c-1 -18 20 -82 25 -77 2 2 -3 24 -11 48 -7 25 -14 38 -14
29z"/>
<path d="M1751 4284 c0 -11 3 -14 6 -6 3 7 2 16 -1 19 -3 4 -6 -2 -5 -13z"/>
<path d="M2011 4274 c0 -11 3 -14 6 -6 3 7 2 16 -1 19 -3 4 -6 -2 -5 -13z"/>
<path d="M1780 4191 c0 -6 4 -13 10 -16 6 -3 7 1 4 9 -7 18 -14 21 -14 7z"/>
<path d="M3521 4360 c-30 -28 -50 -50 -45 -50 5 0 32 23 59 50 63 64 56 63
-14 0z"/>
<path d="M3629 4279 l-24 -20 28 17 c15 9 27 18 27 20 0 8 -8 4 -31 -17z"/>
<path d="M3592 4175 c0 -16 2 -22 5 -12 2 9 2 23 0 30 -3 6 -5 -1 -5 -18z"/>
<path d="M3567 4095 c-9 -19 -15 -35 -12 -35 7 0 37 61 33 66 -3 2 -12 -12
-21 -31z"/>
<path d="M1880 3996 c0 -8 4 -17 9 -20 5 -4 7 3 4 14 -6 23 -13 26 -13 6z"/>
<path d="M3297 3566 c-26 -44 -77 -117 -113 -161 l-66 -80 56 58 c59 61 119
145 155 215 37 73 19 55 -32 -32z"/>
<path d="M2926 3705 c22 -77 36 -143 37 -186 2 -57 17 -67 17 -11 0 44 -22
136 -45 184 -8 18 -13 24 -9 13z"/>
<path d="M1008 3183 c7 -3 16 -2 19 1 4 3 -2 6 -13 5 -11 0 -14 -3 -6 -6z"/>
<path d="M1065 3169 c16 -5 57 -11 90 -13 60 -5 59 -5 -15 9 -85 15 -119 18
-75 4z"/>
<path d="M3698 3053 c7 -3 16 -2 19 1 4 3 -2 6 -13 5 -11 0 -14 -3 -6 -6z"/>
<path d="M3492 1580 c0 -14 2 -19 5 -12 2 6 2 18 0 25 -3 6 -5 1 -5 -13z"/>
<path d="M3476 1511 c-9 -60 -70 -239 -110 -325 -19 -42 -33 -76 -31 -76 11 0
77 135 103 210 30 86 58 217 50 226 -3 2 -8 -13 -12 -35z"/>
</g>
</svg>